<svg  viewBox="0 0 24 24" fill="none" xmlns="http://www.w3.org/2000/svg">
<path d="M13.5 11.5858L15.5857 9.5C15.9763 9.10948 16.6094 9.10948 17 9.5C17.3905 9.89053 17.3905 10.5237 17 10.9142L14.2071 13.7071C14.0195 13.8946 13.7652 14 13.4999 14C13.2347 14 12.9804 13.8946 12.7928 13.7071L10.5 11.4142L8.41419 13.5C8.02367 13.8905 7.3905 13.8905 6.99998 13.5C6.60945 13.1095 6.60945 12.4763 6.99998 12.0858L9.79287 9.2929C9.98041 9.10536 10.2348 9 10.5 9C10.7652 9 11.0196 9.10536 11.2071 9.2929L13.5 11.5858Z" fill="black"/>
<path fill-rule="evenodd" clip-rule="evenodd" d="M12 2C11.4477 2 11 2.44772 11 3V4H4C2.89543 4 2 4.89543 2 6V17C2 18.1046 2.89543 19 4 19H6.49868L4.98223 21.6344C4.7067 22.1131 4.87137 22.7245 5.35002 23C5.82867 23.2755 6.44005 23.1109 6.71557 22.6322L8.80636 19H15.2437L17.3345 22.6322C17.61 23.1109 18.2214 23.2755 18.7 23C19.1787 22.7245 19.3433 22.1131 19.0678 21.6345L17.5514 19H20C21.1046 19 22 18.1046 22 17V6C22 4.89543 21.1046 4 20 4H13V3C13 2.44772 12.5523 2 12 2ZM4 6L4 17H20V6H4Z" fill="black"/>
</svg>
