<svg  viewBox="0 0 26 26" fill="none" xmlns="http://www.w3.org/2000/svg">
<path fill-rule="evenodd" clip-rule="evenodd" d="M14.5 15C16.433 15 18 13.433 18 11.5C18 9.567 16.433 8 14.5 8C12.567 8 11 9.567 11 11.5C11 13.433 12.567 15 14.5 15ZM14.5 13C15.3284 13 16 12.3284 16 11.5C16 10.6716 15.3284 10 14.5 10C13.6716 10 13 10.6716 13 11.5C13 12.3284 13.6716 13 14.5 13Z" fill="#304A73"/>
<path d="M7 16C6.44772 16 6 15.5523 6 15V8C6 7.44772 6.44772 7 7 7C7.55229 7 8 7.44772 8 8V15C8 15.5523 7.55229 16 7 16Z" fill="#304A73"/>
<path fill-rule="evenodd" clip-rule="evenodd" d="M2 5C2 3.89543 2.89543 3 4 3H20C21.1046 3 22 3.89543 22 5V18C22 19.1046 21.1046 20 20 20H18V21C18 21.5523 17.5523 22 17 22C16.4477 22 16 21.5523 16 21V20H8V21C8 21.5523 7.55229 22 7 22C6.44772 22 6 21.5523 6 21V20H4C2.89543 20 2 19.1046 2 18V5ZM4 18L4 5H20V18H4Z" fill="#304A73"/>
</svg>
