<svg width="24" height="24" viewBox="0 0 24 24" fill="none" xmlns="http://www.w3.org/2000/svg">
<path d="M16.5 9.91418C16.8905 9.52366 16.8905 8.89049 16.5 8.49997C16.1095 8.10944 15.4763 8.10944 15.0858 8.49997L11 12.5858L9.41422 11C9.02369 10.6094 8.39053 10.6094 8 11C7.60948 11.3905 7.60948 12.0237 8 12.4142L10.2929 14.7071C10.6834 15.0976 11.3166 15.0976 11.7071 14.7071L16.5 9.91418Z" fill="black"/>
<path fill-rule="evenodd" clip-rule="evenodd" d="M4.18772 4.47209C3.46547 4.79309 3 5.50933 3 6.29971V13C3 18.8766 9.34312 21.9341 11.379 22.764C11.7798 22.9274 12.2203 22.9274 12.621 22.764C14.6569 21.9341 21 18.8766 21 13V6.29971C21 5.50933 20.5345 4.79309 19.8123 4.47209L12.8123 1.36098C12.2951 1.13114 11.7049 1.13114 11.1877 1.36098L4.18772 4.47209ZM16.2605 18.2663C17.8582 16.8748 19 15.145 19 13V6.29971L12 3.1886L5 6.29971V13C5 15.145 6.14184 16.8748 7.73955 18.2663C9.26856 19.5979 11.0369 20.4531 12 20.8566C12.9631 20.4531 14.7314 19.5979 16.2605 18.2663Z" fill="black"/>
</svg>
