<svg  viewBox="0 0 24 24" fill="none" xmlns="http://www.w3.org/2000/svg">
<path d="M18 14C18 14.8284 17.3284 15.5 16.5 15.5C15.6716 15.5 15 14.8284 15 14C15 13.1716 15.6716 12.5 16.5 12.5C17.3284 12.5 18 13.1716 18 14Z" fill="black"/>
<path fill-rule="evenodd" clip-rule="evenodd" d="M5 3C3.34315 3 2 4.34315 2 6V19C2 20.1046 2.89543 21 4 21H20C21.1046 21 22 20.1046 22 19V9C22 7.89543 21.1046 7 20 7V5C20 3.89543 19.1046 3 18 3H5ZM4 6C4 6.55229 4.44772 7 5 7H18V5H5C4.44772 5 4 5.44772 4 6ZM4 8.8293C4.31278 8.93985 4.64937 9 5 9H20V19H4L4 8.8293Z" fill="black"/>
</svg>
